<?xml version="1.0" encoding="utf-8"?>
<!-- Generator: Adobe Illustrator 18.1.0, SVG Export Plug-In . SVG Version: 6.00 Build 0)  -->
<!DOCTYPE svg PUBLIC "-//W3C//DTD SVG 1.1//EN" "http://www.w3.org/Graphics/SVG/1.1/DTD/svg11.dtd">
<svg version="1.1" xmlns="http://www.w3.org/2000/svg" xmlns:xlink="http://www.w3.org/1999/xlink" x="0px" y="0px"
	 viewBox="0 0 162.2 154.7" enable-background="new 0 0 162.2 154.7" xml:space="preserve">
<g id="Layer_3" display="none">
</g>
<g id="Layer_2">
	<g>
		<path fill="#F0EC73" d="M161.5,61.2c1.4-1.4,0.6-3.9-1.4-4.2l-51.5-7.4c-0.8-0.1-1.5-0.6-1.9-1.3l-23.9-47c-0.9-1.8-3.5-1.8-4.4,0
			l-23,46.9c-0.4,0.7-1.1,1.2-1.9,1.4L2.1,57c-2,0.3-2.8,2.8-1.4,4.2l37.5,37c0.6,0.6,0.8,1.4,0.7,2.2l-8.8,51.3
			c-0.3,2,1.8,3.6,3.6,2.6L80,130.5c0.7-0.4,1.6-0.4,2.3,0l46.7,23.9c1.8,0.9,3.9-0.6,3.6-2.6l-8.8-51.6c-0.1-0.8,0.1-1.6,0.7-2.2
			L161.5,61.2z M113.1,95.9l6.3,36.8c0.4,2.1-1.8,3.7-3.7,2.7l-33.3-17c-0.7-0.4-1.6-0.4-2.4,0l-33,17c-1.9,1-4.1-0.6-3.7-2.7
			l6.2-36.5c0.1-0.8-0.1-1.7-0.7-2.3L22.1,67.4c-1.5-1.5-0.7-4.1,1.4-4.4l36.5-5.3c0.8-0.1,1.6-0.6,1.9-1.4L78.4,23
			c0.9-1.9,3.7-1.9,4.6,0l17,33.5c0.4,0.7,1.1,1.3,1.9,1.4l36.7,5.3c2.1,0.3,3,2.9,1.5,4.4l-26.4,26.2
			C113.2,94.2,112.9,95,113.1,95.9z"/>
		<path fill="#F0EC73" d="M102.8,78.1v7.4c0,4.3-3.5,7.8-7.8,7.8h-5.7V107h-7c-4.4,0-8-3.6-8-8v-5.9H60.1v-7.3c0-4.4,3.6-7.9,8-7.9
			l6.1,0.1V64.2H81c4.4,0,8.1,3.6,8.1,8.1v5.9H102.8z"/>
	</g>
</g>
</svg>
