<?xml version="1.0" encoding="utf-8"?>
<!-- Generator: Adobe Illustrator 18.1.0, SVG Export Plug-In . SVG Version: 6.00 Build 0)  -->
<!DOCTYPE svg PUBLIC "-//W3C//DTD SVG 1.1//EN" "http://www.w3.org/Graphics/SVG/1.1/DTD/svg11.dtd">
<svg version="1.1" xmlns="http://www.w3.org/2000/svg" xmlns:xlink="http://www.w3.org/1999/xlink" x="0px" y="0px"
	 viewBox="0 0 157.6 123.9" enable-background="new 0 0 157.6 123.9" xml:space="preserve">
<g id="Layer_3" display="none">
</g>
<g id="Layer_2">
	<g>
		<path fill="#F0EC73" d="M147.8,47.9c1.2-1.2,0.5-3.2-1.1-3.4l-41.9-6c-0.6-0.1-1.2-0.5-1.5-1.1L83.8-0.8c-0.8-1.5-2.9-1.5-3.6,0
			L61.5,37.4c-0.3,0.6-0.9,1-1.5,1.1l-41.8,6c-1.6,0.2-2.3,2.3-1.1,3.4L47.5,78c0.5,0.5,0.7,1.1,0.6,1.8l-7.1,41.7
			c-0.3,1.6,1.4,2.9,2.9,2.1l37.6-19.4c0.6-0.3,1.3-0.3,1.8,0l38,19.4c1.5,0.8,3.2-0.5,2.9-2.1l-7.1-42c-0.1-0.6,0.1-1.3,0.6-1.8
			L147.8,47.9z M108.4,76.1l5.1,29.9c0.3,1.7-1.5,3-3,2.2L83.4,94.3c-0.6-0.3-1.3-0.3-1.9,0l-26.8,13.8c-1.5,0.8-3.3-0.5-3-2.2
			l5.1-29.7c0.1-0.7-0.1-1.4-0.6-1.8L34.4,52.9c-1.2-1.2-0.5-3.3,1.2-3.6l29.7-4.3c0.7-0.1,1.3-0.5,1.6-1.2l13.3-27.2
			c0.8-1.6,3-1.6,3.8,0L97.8,44c0.3,0.6,0.9,1,1.6,1.1l29.8,4.3c1.7,0.2,2.4,2.3,1.2,3.6L109,74.2C108.5,74.7,108.3,75.4,108.4,76.1
			z"/>
		<path fill="#F0EC73" d="M100,61.6v6c0,3.5-2.9,6.4-6.4,6.4H89v11.2h-5.7c-3.6,0-6.5-2.9-6.5-6.5v-4.8H65.3v-5.9
			c0-3.6,2.9-6.4,6.5-6.4l5,0.1V50.3h5.5c3.6,0,6.6,2.9,6.6,6.6v4.8H100z"/>
	</g>
</g>
</svg>
