<?xml version="1.0" encoding="utf-8"?>
<!-- Generator: Adobe Illustrator 18.1.0, SVG Export Plug-In . SVG Version: 6.00 Build 0)  -->
<!DOCTYPE svg PUBLIC "-//W3C//DTD SVG 1.1//EN" "http://www.w3.org/Graphics/SVG/1.1/DTD/svg11.dtd">
<svg version="1.1" xmlns="http://www.w3.org/2000/svg" xmlns:xlink="http://www.w3.org/1999/xlink" x="0px" y="0px"
	 viewBox="0 0 157.6 123.9" enable-background="new 0 0 157.6 123.9" xml:space="preserve">
<g id="Layer_3" display="none">
</g>
<g id="Layer_2">
	<g>
		<path fill="#54AEE1" d="M14.8,57.8h42.9c2.4,0,5.3,2.4,5.3,5.3l-48.1,0V57.8z"/>
		<path fill="#54AEE1" d="M14.8,71h42.9c2.4,0,5.3,2.4,5.3,5.3l-48.1,0V71z"/>
		<path fill="#54AEE1" d="M14.8,84.6h42.9c2.4,0,5.3,2.4,5.3,5.3l-48.1,0V84.6z"/>
		<path fill="#54AEE1" d="M77.7,43.5v63c0,1.2-1,2.2-2.2,2.2H34.7c0-2.6,2-4.6,4.6-4.6h32.1c1.3,0,2.4-1.1,2.4-2.4V48
			c0-1.3-1.1-2.4-2.4-2.4H7.7c-1.4,0-2.5,1.1-2.5,2.5v54.1c0,1.3,1.1,2.4,2.4,2.4h11c1.8,4.2,0,10.7,0,10.7c3-0.9,5.6-3.3,7.4-5.6
			c1.8-2.3,2.8-4.3,2.8-4.3c0.1,5.1-2.4,10-6.7,12.9c-5.4,3.6-11.8,5.7-11.8,5.7c6.4-8.7,4.6-15.1,4.6-15.1H2.3
			c-1.3,0-2.3-1-2.3-2.3V43.8c0-1.3,1.1-2.4,2.4-2.4h73.1C76.8,41.4,77.7,42.3,77.7,43.5z"/>
		<path fill="#54AEE1" d="M103.5,88H73.7v-6h22.7C100.3,82,103.5,84.7,103.5,88z"/>
		<path fill="#54AEE1" d="M157.6,3.2V85c0,1.7-1.6,3-3.6,3h-19.7c0,0-2.8,8.4,7.1,19.7c0,0-9.9-2.7-18.4-7.4
			c-6.7-3.7-10.5-10.1-10.4-16.9c0,0,1.6,2.7,4.4,5.6c2.8,3,6.8,6.2,11.5,7.3c0,0-2.8-8.5,0-14h17.1c2.1,0,3.7-1.4,3.7-3.1V8.8
			c0-1.8-1.8-3.3-3.9-3.3H46.3c-2.1,0-3.7,1.4-3.7,3.1v37h-6.3V2.8c0-1.6,1.5-2.8,3.4-2.8h114.1C155.9,0,157.6,1.4,157.6,3.2z"/>
	</g>
</g>
</svg>
