<?xml version="1.0" encoding="utf-8"?>
<!-- Generator: Adobe Illustrator 18.1.0, SVG Export Plug-In . SVG Version: 6.00 Build 0)  -->
<!DOCTYPE svg PUBLIC "-//W3C//DTD SVG 1.1//EN" "http://www.w3.org/Graphics/SVG/1.1/DTD/svg11.dtd">
<svg version="1.1" xmlns="http://www.w3.org/2000/svg" xmlns:xlink="http://www.w3.org/1999/xlink" x="0px" y="0px"
	 viewBox="0 0 107.2 161.1" enable-background="new 0 0 107.2 161.1" xml:space="preserve">
<g id="Layer_3" display="none">
</g>
<g id="Layer_2">
	<g>
		<circle fill="#51BA67" cx="49.4" cy="27" r="27"/>
		<path fill="#51BA67" d="M27.6,60.6h47.7c15.1,0,27.3,12.2,27.3,27.3v38.8c0,6.6-5.4,12-12,12h-5.8V82.2h-3.2v56.6H21.2V81.6h-3.5
			v57.1h-3.1c-7,0-14.6-5.7-14.6-12.6V88.2C0,72.9,12.3,60.6,27.6,60.6z"/>
		<path fill="#51BA67" stroke="#FFFFFF" stroke-width="4" stroke-miterlimit="10" d="M105.2,121.4v9.6c0,5.6-4.6,10.2-10.2,10.2
			h-7.4v17.9h-9.1c-5.8,0-10.4-4.7-10.4-10.4V141H49.7v-9.5c0-5.7,4.7-10.3,10.4-10.2l8,0.1v-18.1h8.8c5.8,0,10.5,4.7,10.5,10.5v7.6
			H105.2z"/>
	</g>
</g>
</svg>
