<?xml version="1.0" encoding="utf-8"?>
<!-- Generator: Adobe Illustrator 18.1.0, SVG Export Plug-In . SVG Version: 6.00 Build 0)  -->
<!DOCTYPE svg PUBLIC "-//W3C//DTD SVG 1.1//EN" "http://www.w3.org/Graphics/SVG/1.1/DTD/svg11.dtd">
<svg version="1.1" xmlns="http://www.w3.org/2000/svg" xmlns:xlink="http://www.w3.org/1999/xlink" x="0px" y="0px"
	 viewBox="0 0 157.6 123.9" enable-background="new 0 0 157.6 123.9" xml:space="preserve">
<g id="Layer_3" display="none">
</g>
<g id="Layer_2">
	<g>
		<circle fill="#51BA67" cx="76.9" cy="20.8" r="20.8"/>
		<path fill="#51BA67" d="M60,46.7h36.8c11.6,0,21.1,9.4,21.1,21.1v29.9c0,5.1-4.1,9.3-9.3,9.3h-4.5V63.3h-2.4v43.6H55.1v-44h-2.7
			v44H50c-5.4,0-11.3-4.4-11.3-9.7V67.9C38.8,56.2,48.3,46.7,60,46.7z"/>
		<path fill="#51BA67" stroke="#FFFFFF" stroke-width="4" stroke-miterlimit="10" d="M119.9,93.6v7.4c0,4.3-3.5,7.9-7.9,7.9h-5.7
			v13.8h-7c-4.4,0-8-3.6-8-8v-5.9H77.1v-7.3c0-4.4,3.6-7.9,8-7.9l6.1,0.1v-14H98c4.5,0,8.1,3.6,8.1,8.1v5.9H119.9z"/>
	</g>
</g>
</svg>
