<?xml version="1.0" encoding="utf-8"?>
<!-- Generator: Adobe Illustrator 18.1.0, SVG Export Plug-In . SVG Version: 6.00 Build 0)  -->
<!DOCTYPE svg PUBLIC "-//W3C//DTD SVG 1.1//EN" "http://www.w3.org/Graphics/SVG/1.1/DTD/svg11.dtd">
<svg version="1.1" xmlns="http://www.w3.org/2000/svg" xmlns:xlink="http://www.w3.org/1999/xlink" x="0px" y="0px"
	 viewBox="0 0 154 142.1" enable-background="new 0 0 154 142.1" xml:space="preserve">
<g id="Layer_3" display="none">
</g>
<g id="Layer_2">
	<g>
		<path fill="#FAA41F" d="M63.1,5.9H8.6c-1.6,0-2.9,1.3-2.9,2.9v59.5c0,1.6,1.3,2.9,2.9,2.9h31.2c1.4,0,2.6,1,2.8,2.5
			c0,0.2,0,0.3,0.1,0.5c0.3,1.7-1.1,3.3-2.8,3.3H2.9c-1.6,0-2.9-1.3-2.9-2.9V2.9C0,1.3,1.3,0,2.9,0h60.3c2,0,3.3,1.9,2.7,3.8
			c0,0,0,0.1,0,0.1C65.4,5.1,64.3,5.9,63.1,5.9z"/>
		<path fill="#FAA41F" d="M15.8,18.9h41c2.3,0,5,2.9,5,6.4l-46,0V18.9z"/>
		<path fill="#FAA41F" d="M16.3,33.8h32.6c1.8,0,4.7,2.9,4.7,6.4h-1.5H16.3V33.8z"/>
		<path fill="#FAA41F" d="M16.3,48.5h22.5c1.2,0,4.7,2.9,4.7,6.4H16.3V48.5z"/>
	</g>
	<g>
		<path fill="#FFFFFF" d="M56.2,137h35.5c2.1,0,4.2,0.5,6,1.6c2.5,1.5,7.1,3.5,14,3.5c11.1,0,18.9-10.1,19.6-15.7
			c0.3-2.5,0.3-7.5,0.3-12.1c-0.1-5.4,3.4-10.1,8.5-11.7c6-1.9,13-6.5,13.7-17.6c0,0,1.5-8.3-7.1-14.7c-0.5-0.4-1-0.8-1.5-1.3
			c-2.7-2.7-12.3-12.5-17.2-18.6c-2.3-2.8-5.7-4.5-9.4-4.5H56.3c-6.6,0-12,5.4-12,12L44.2,125C44.2,131.6,49.6,137,56.2,137z"/>
		<g>
			<path fill="#FAA41F" d="M143.7,73.3c-8-5.9-20.5-20.8-20.5-20.8l-1.8,55.3c-4.6-3.7-11.7-3.6-11.7-3.6
				c-11.3,0.3-15.1,10.5-15.1,17.4c0,9.2,8.8,15.4,15.8,15.4c16.1,0,17.1-15.9,17.1-15.9l1.1-57.4c5.5,7.3,11.7,18.2,11.7,18.2
				c4.6,10.4-3.7,16.4-3.7,16.4c9.3-1,11.2-9.4,11.2-9.4C150.8,79.9,143.7,73.3,143.7,73.3z M121.9,121.4l-15.2,10.2
				c-1.2,0.8-2.8,0-2.8-1.5l-0.3-18.9c0-1.3,1.3-2.1,2.4-1.5l15.8,8.7C123,119,123,120.7,121.9,121.4z"/>
			<path fill="#FAA41F" d="M115.9,57.7H59.2c-1.6,0-3,1.3-3,3v62c0,1.6,1.3,3,3,3h32.5c1.5,0,2.7,1.1,2.9,2.6c0,0.2,0,0.3,0.1,0.5
				c0.3,1.8-1.1,3.4-2.9,3.4H53.2c-1.6,0-3-1.3-3-3V54.5c0-1.6,1.3-3,3-3H116c2,0,3.5,2,2.8,3.9c0,0,0,0.1,0,0.1
				C118.4,56.9,117.2,57.7,115.9,57.7z"/>
			<path fill="#FAA41F" d="M66.6,71.2h42.7c2.4,0,5.3,3,5.3,6.7l-48,0V71.2z"/>
			<path fill="#FAA41F" d="M67.2,86.8h33.9c1.9,0,4.9,3,4.9,6.7h-1.6H67.2V86.8z"/>
			<path fill="#FAA41F" d="M67.2,102h23.5c1.3,0,4.9,3,4.9,6.7H67.2V102z"/>
		</g>
	</g>
	<path fill="#FAA41F" d="M105.3,18.7v6.5c0,3.8-3.1,6.9-6.9,6.9h-5v12h-6.1c-3.9,0-7-3.1-7-7v-5.2H68v-6.4c0-3.8,3.1-6.9,7-6.9
		l5.4,0.1V6.5h5.9c3.9,0,7,3.2,7,7v5.1H105.3z"/>
</g>
</svg>
