<?xml version="1.0" encoding="utf-8"?>
<!-- Generator: Adobe Illustrator 18.1.0, SVG Export Plug-In . SVG Version: 6.00 Build 0)  -->
<!DOCTYPE svg PUBLIC "-//W3C//DTD SVG 1.1//EN" "http://www.w3.org/Graphics/SVG/1.1/DTD/svg11.dtd">
<svg version="1.1" xmlns="http://www.w3.org/2000/svg" xmlns:xlink="http://www.w3.org/1999/xlink" x="0px" y="0px"
	 viewBox="0 0 157.6 123.9" enable-background="new 0 0 157.6 123.9" xml:space="preserve">
<g id="Layer_3" display="none">
</g>
<g id="Layer_2">
	<g>
		<path fill="#FAA41F" d="M70.5,4.8H21c-1.4,0-2.6,1.2-2.6,2.6v54.1c0,1.4,1.2,2.6,2.6,2.6h28.4c1.3,0,2.4,1,2.6,2.2
			c0,0.1,0,0.3,0.1,0.4c0.3,1.6-1,3-2.6,3H15.8c-1.4,0-2.6-1.2-2.6-2.6V2c0-1.4,1.2-2.6,2.6-2.6h54.8c1.8,0,3,1.7,2.5,3.4
			c0,0,0,0.1,0,0.1C72.6,4.1,71.6,4.8,70.5,4.8z"/>
		<path fill="#FAA41F" d="M27.5,16.6h37.3c2.1,0,4.6,2.6,4.6,5.8l-41.9,0V16.6z"/>
		<path fill="#FAA41F" d="M28,30.2h29.6c1.6,0,4.3,2.6,4.3,5.8h-1.4H28V30.2z"/>
		<path fill="#FAA41F" d="M28,43.5h20.5c1.1,0,4.3,2.6,4.3,5.8H28V43.5z"/>
	</g>
	<g>
		<path fill="#FFFFFF" d="M64.3,124h32.3c1.9,0,3.8,0.5,5.5,1.5c2.3,1.4,6.5,3.2,12.7,3.2c10.1,0,17.2-9.2,17.8-14.2
			c0.3-2.3,0.3-6.8,0.2-11c-0.1-4.9,3.1-9.2,7.8-10.6c5.4-1.7,11.8-5.9,12.4-16c0,0,1.3-7.5-6.4-13.4c-0.5-0.4-1-0.7-1.4-1.2
			c-2.4-2.5-11.2-11.4-15.6-16.9c-2.1-2.6-5.2-4.1-8.5-4.1H64.4c-6,0-10.9,4.9-10.9,10.9l-0.1,61C53.3,119.1,58.2,124,64.3,124z"/>
		<g>
			<path fill="#FAA41F" d="M143.8,66c-7.2-5.3-18.6-18.9-18.6-18.9l-1.6,50.2c-4.2-3.4-10.6-3.3-10.6-3.3
				c-10.3,0.3-13.7,9.5-13.7,15.8c0,8.4,8,14,14.3,14c14.6,0,15.5-14.4,15.5-14.4l1-52.2c5,6.7,10.6,16.6,10.6,16.6
				c4.1,9.5-3.4,14.9-3.4,14.9c8.4-0.9,10.2-8.5,10.2-8.5C150.3,72,143.8,66,143.8,66z M124,109.8l-13.8,9.2c-1.1,0.7-2.6,0-2.6-1.3
				l-0.3-17.2c0-1.2,1.2-1.9,2.2-1.3l14.4,7.9C124.9,107.6,125,109.1,124,109.8z"/>
			<path fill="#FAA41F" d="M118.5,51.9H67c-1.5,0-2.7,1.2-2.7,2.7V111c0,1.5,1.2,2.7,2.7,2.7h29.5c1.3,0,2.5,1,2.7,2.3
				c0,0.2,0,0.3,0.1,0.5c0.3,1.6-1,3.1-2.7,3.1H61.5c-1.5,0-2.7-1.2-2.7-2.7V49c0-1.5,1.2-2.7,2.7-2.7h57.1c1.9,0,3.1,1.8,2.6,3.6
				c0,0,0,0.1,0,0.1C120.8,51.1,119.7,51.9,118.5,51.9z"/>
			<path fill="#FAA41F" d="M73.7,64.1h38.8c2.2,0,4.8,2.7,4.8,6.1l-43.6,0V64.1z"/>
			<path fill="#FAA41F" d="M74.3,78.3h30.8c1.7,0,4.5,2.7,4.5,6.1h-1.4H74.3V78.3z"/>
			<path fill="#FAA41F" d="M74.3,92.2h21.3c1.2,0,4.4,2.7,4.4,6.1H74.3V92.2z"/>
		</g>
	</g>
	<path fill="#FAA41F" d="M108.9,16.4v5.9c0,3.4-2.8,6.2-6.2,6.2h-4.5v10.9h-5.6c-3.5,0-6.4-2.9-6.4-6.4v-4.7H75v-5.8
		c0-3.5,2.8-6.3,6.3-6.2l4.9,0.1V5.4h5.4c3.5,0,6.4,2.9,6.4,6.4v4.7H108.9z"/>
</g>
</svg>
