<?xml version="1.0" encoding="utf-8"?>
<!-- Generator: Adobe Illustrator 18.1.0, SVG Export Plug-In . SVG Version: 6.00 Build 0)  -->
<!DOCTYPE svg PUBLIC "-//W3C//DTD SVG 1.1//EN" "http://www.w3.org/Graphics/SVG/1.1/DTD/svg11.dtd">
<svg version="1.1" id="Layer_2" xmlns="http://www.w3.org/2000/svg" xmlns:xlink="http://www.w3.org/1999/xlink" x="0px" y="0px"
	 viewBox="0 208.4 612 583.2" enable-background="new 0 208.4 612 583.2" xml:space="preserve">
<path fill="#53ADE1" d="M151.5,791.6h-28.2c-10.2,0-18.6-8.4-18.6-18.6V504c0-10.2,8.4-18.6,18.6-18.6h28.2
	c10.2,0,18.6,8.4,18.6,18.6v269C170.1,783.2,161.7,791.6,151.5,791.6z"/>
<path fill="#53ADE1" d="M488.8,791.6h-28.2c-10.2,0-18.6-8.4-18.6-18.6V504c0-10.2,8.4-18.6,18.6-18.6h28.2
	c10.2,0,18.6,8.4,18.6,18.6v269C507.4,783.2,499,791.6,488.8,791.6z"/>
<path fill="#53ADE1" d="M89.9,736.8H73.1c-6.4,0-11.6-5.3-11.6-11.6v-174c0-6.4,5.3-11.6,11.6-11.6h16.8c6.4,0,11.6,5.3,11.6,11.6
	v174C101.5,731.5,96.2,736.8,89.9,736.8z"/>
<path fill="#53ADE1" d="M538.9,736.8h-16.8c-6.4,0-11.6-5.3-11.6-11.6v-174c0-6.4,5.3-11.6,11.6-11.6h16.8c6.4,0,11.6,5.3,11.6,11.6
	v174C550.7,731.5,545.4,736.8,538.9,736.8z"/>
<path id="XMLID_2_" fill="#53ADE1" d="M54.8,667.7H17.4c0,0-122.8-460.5,284-459.3s297.2,459.3,297.2,459.3h-43.5v-63.2h21
	c0,0,24.7-330.6-270.2-330.6S34.1,604.5,34.1,604.5H56L54.8,667.7z"/>
<path fill="#53ADE1" d="M233,437.5c25-17.4,85.7-47.8,158.8,0.3c6.2,4.2,7.1,13,1.9,18.3l0,0c-3.9,3.9-10.1,4.7-14.7,1.7
	c-20-12.4-75.6-39.6-131.3-0.3c-4.5,3.1-10.4,2.9-14.6-0.6l-0.8-0.6C226.1,451.5,226.5,442.2,233,437.5z"/>
<path fill="#53ADE1" d="M263.4,476.7c15.4-10.7,52.8-29.5,97.6,0.2c3.9,2.5,4.3,8.1,1.1,11.3l0,0c-2.5,2.5-6.2,2.8-9,1.1
	c-12.3-7.6-46.6-24.4-80.7-0.2c-2.8,1.9-6.4,1.9-9-0.3l-0.5-0.5C259.2,485.2,259.5,479.3,263.4,476.7z"/>
<path fill="#53ADE1" d="M178.8,387.1c41.9-29.2,144.2-80.6,267.1,0.5c10.7,7,12.3,22,3.3,31l0,0c-6.7,6.7-16.9,7.8-24.8,2.8
	c-33.7-21-127.3-66.6-221-0.5c-7.5,5.3-17.5,5-24.5-0.9l-1.4-1.1C167.3,410.5,167.9,394.5,178.8,387.1z"/>
</svg>
