<?xml version="1.0" encoding="utf-8"?>
<!-- Generator: Adobe Illustrator 18.1.0, SVG Export Plug-In . SVG Version: 6.00 Build 0)  -->
<!DOCTYPE svg PUBLIC "-//W3C//DTD SVG 1.1//EN" "http://www.w3.org/Graphics/SVG/1.1/DTD/svg11.dtd">
<svg version="1.1" xmlns="http://www.w3.org/2000/svg" xmlns:xlink="http://www.w3.org/1999/xlink" x="0px" y="0px"
	 viewBox="0 0 157.6 123.9" enable-background="new 0 0 157.6 123.9" xml:space="preserve">
<g id="Layer_3" display="none">
</g>
<g id="Layer_2">
	<g>
		<path fill="#EF4968" d="M144.6,30.8c-11.5-8.5-29.6-30.1-29.6-30.1l-2.6,80c-6.7-5.4-16.9-5.2-16.9-5.2
			C79,75.9,73.5,90.6,73.6,100.7c0,13.3,12.8,22.3,22.8,22.3c23.3,0,24.8-23,24.8-23l1.6-83.1c7.9,10.6,16.9,26.3,16.9,26.3
			c6.6,15.1-5.4,23.8-5.4,23.8c13.4-1.4,16.2-13.6,16.2-13.6C154.9,40.3,144.6,30.8,144.6,30.8z M113.1,100.4l-22,14.7
			c-1.7,1.2-4.1-0.1-4.1-2.1l-0.5-27.3c0-1.8,1.9-3,3.5-2.1L113,96.1C114.6,97,114.7,99.4,113.1,100.4z"/>
		<path fill="#EF4968" d="M104.4,8.3h-82c-2.4,0-4.3,1.9-4.3,4.3v89.7c0,2.4,1.9,4.3,4.3,4.3h47c2.1,0,4,1.6,4.3,3.7
			c0,0.2,0.1,0.5,0.1,0.7c0.4,2.6-1.6,5-4.2,5H13.7c-2.4,0-4.3-1.9-4.3-4.3V3.7c0-2.4,1.9-4.3,4.3-4.3h90.9c2.9,0,5,2.9,4.1,5.7
			c0,0.1,0,0.1-0.1,0.2C108,7,106.3,8.3,104.4,8.3z"/>
		<path fill="#EF4968" d="M33.1,27.8h61.8c3.5,0,7.6,4.3,7.6,9.7l-69.4,0V27.8z"/>
		<path fill="#EF4968" d="M34,50.4H83c2.7,0,7.1,4.3,7.1,9.7h-2.3H34V50.4z"/>
		<path fill="#EF4968" d="M34,72.4h34c1.9,0,7.1,4.3,7.1,9.7H34V72.4z"/>
	</g>
</g>
</svg>
