<?xml version="1.0" encoding="utf-8"?>
<!-- Generator: Adobe Illustrator 18.1.0, SVG Export Plug-In . SVG Version: 6.00 Build 0)  -->
<!DOCTYPE svg PUBLIC "-//W3C//DTD SVG 1.1//EN" "http://www.w3.org/Graphics/SVG/1.1/DTD/svg11.dtd">
<svg version="1.1" xmlns="http://www.w3.org/2000/svg" xmlns:xlink="http://www.w3.org/1999/xlink" x="0px" y="0px"
	 viewBox="0 0 144 125.2" enable-background="new 0 0 144 125.2" xml:space="preserve">
<g id="Layer_3" display="none">
</g>
<g id="Layer_2">
	<g>
		<path fill="#EF4968" d="M136.9,31.8c-11.7-8.6-30-30.5-30-30.5l-2.6,81c-6.8-5.5-17.1-5.2-17.1-5.2C70.5,77.5,65,92.4,65,102.6
			c0,13.5,12.9,22.6,23.1,22.6c23.5,0,25.1-23.3,25.1-23.3l1.6-84.1c8,10.7,17.1,26.7,17.1,26.7c6.7,15.2-5.5,24.1-5.5,24.1
			c13.6-1.4,16.4-13.8,16.4-13.8C147.3,41.5,136.9,31.8,136.9,31.8z M105,102.3l-22.3,14.9c-1.8,1.2-4.1-0.1-4.2-2.2l-0.5-27.7
			c0-1.9,2-3.1,3.6-2.2l23.2,12.7C106.5,98.9,106.6,101.3,105,102.3z"/>
		<path fill="#EF4968" d="M96.2,9H13.2c-2.4,0-4.3,1.9-4.3,4.3v90.8c0,2.4,1.9,4.3,4.3,4.3h47.6c2.2,0,4,1.6,4.3,3.8
			c0,0.2,0.1,0.5,0.1,0.7c0.4,2.6-1.6,5-4.3,5H4.3c-2.4,0-4.3-1.9-4.3-4.3V4.3C0,1.9,1.9,0,4.3,0h92c3,0,5.1,2.9,4.1,5.8
			c0,0.1,0,0.1-0.1,0.2C99.8,7.8,98.1,9,96.2,9z"/>
		<path fill="#EF4968" d="M24.1,28.8h62.6c3.5,0,7.7,4.4,7.7,9.8l-70.2,0V28.8z"/>
		<path fill="#EF4968" d="M24.9,51.6h49.7c2.7,0,7.2,4.4,7.2,9.8h-2.3H24.9V51.6z"/>
		<path fill="#EF4968" d="M24.9,74h34.4c1.9,0,7.2,4.4,7.2,9.8H24.9V74z"/>
	</g>
</g>
</svg>
