<?xml version="1.0" encoding="utf-8"?>
<!-- Generator: Adobe Illustrator 18.1.0, SVG Export Plug-In . SVG Version: 6.00 Build 0)  -->
<!DOCTYPE svg PUBLIC "-//W3C//DTD SVG 1.1//EN" "http://www.w3.org/Graphics/SVG/1.1/DTD/svg11.dtd">
<svg version="1.1" xmlns="http://www.w3.org/2000/svg" xmlns:xlink="http://www.w3.org/1999/xlink" x="0px" y="0px"
	 viewBox="0 0 132 157.4" enable-background="new 0 0 132 157.4" xml:space="preserve">
<g id="Layer_3" display="none">
</g>
<g id="Layer_2">
	<g>
		<g>
			<path fill="#48459C" d="M90.3,67.3L90,83.4c0,0-1.3,19.3-20.8,19.3C60.7,102.8,50,95.2,50,84c0-8.4,4.6-20.8,18.4-21.1
				c0,0,8.6-0.2,14.2,4.3l0.2-6.9C85.7,62.2,88.2,64.6,90.3,67.3z"/>
			<path fill="#48459C" d="M34.7,103.8L5,133.5c-6.6,6.6-6.6,17.3,0,23.9h0l39.1-39.1L34.7,103.8z"/>
			<g>
				<path fill="#48459C" d="M109.7,25.3C100,18.2,84.8,0,84.8,0l-1.6,50.3l-0.3,10l-0.2,6.9c-5.6-4.5-14.2-4.3-14.2-4.3
					C54.6,63.2,50,75.6,50,84c0,11.2,10.7,18.8,19.2,18.8c19.5,0,20.8-19.3,20.8-19.3l0.3-16.1L90.5,55l0.8-41.3
					c6.7,8.9,14.2,22.1,14.2,22.1c5.5,12.6-4.5,20-4.5,20c11.3-1.2,13.6-11.4,13.6-11.4C118.4,33.3,109.7,25.3,109.7,25.3z
					 M61.3,94.4l-0.4-23c0-1.5,1.6-2.5,3-1.8l19.2,10.5c1.4,0.8,1.5,2.8,0.2,3.7L64.8,96.2C63.3,97.2,61.3,96.1,61.3,94.4z"/>
				<path fill="#48459C" d="M84.8,83.9L63.6,98.1c-1.7,1.1-3.9-0.1-4-2.1l-0.5-26.4c0-1.8,1.9-2.9,3.4-2.1l22,12.1
					C86.3,80.6,86.4,82.9,84.8,83.9z"/>
			</g>
			<g>
				<path fill="#48459C" d="M76.2,12.3c-4.2-3.1-10.8-11-10.8-11l-0.7,21.9l-0.1,4.4l-0.1,3c-2.4-2-6.2-1.9-6.2-1.9
					c-6,0.2-8,5.5-8,9.2c0,4.9,4.7,8.2,8.3,8.2c8.5,0,9-8.4,9-8.4l0.1-7l0.1-5.4l0.3-18c2.9,3.9,6.2,9.6,6.2,9.6
					c2.4,5.5-2,8.7-2,8.7c4.9-0.5,5.9-5,5.9-5C79.9,15.8,76.2,12.3,76.2,12.3z M55.1,42.3l-0.2-10c0-0.7,0.7-1.1,1.3-0.8l8.4,4.6
					c0.6,0.3,0.7,1.2,0.1,1.6l-8,5.4C56,43.5,55.1,43.1,55.1,42.3z"/>
				<path fill="#48459C" d="M65.4,37.8L56.1,44c-0.7,0.5-1.7,0-1.7-0.9l-0.2-11.5c0-0.8,0.8-1.3,1.5-0.9l9.6,5.3
					C66,36.3,66,37.3,65.4,37.8z"/>
			</g>
			<g>
				<path fill="#48459C" d="M129.5,40c-4.2-3.1-10.8-11-10.8-11l-0.7,21.9l-0.1,4.4l-0.1,3c-2.4-2-6.2-1.9-6.2-1.9
					c-6,0.2-8,5.5-8,9.2c0,4.9,4.7,8.2,8.3,8.2c8.5,0,9-8.4,9-8.4l0.1-7l0.1-5.4l0.3-18c2.9,3.9,6.2,9.6,6.2,9.6
					c2.4,5.5-2,8.7-2,8.7c4.9-0.5,5.9-5,5.9-5C133.2,43.5,129.5,40,129.5,40z M108.4,70.1l-0.2-10c0-0.7,0.7-1.1,1.3-0.8l8.4,4.6
					c0.6,0.3,0.7,1.2,0.1,1.6l-8,5.4C109.3,71.3,108.4,70.8,108.4,70.1z"/>
				<path fill="#48459C" d="M118.7,65.5l-9.2,6.2c-0.7,0.5-1.7,0-1.7-0.9l-0.2-11.5c0-0.8,0.8-1.3,1.5-0.9l9.6,5.3
					C119.3,64.1,119.3,65.1,118.7,65.5z"/>
			</g>
			<path fill="#48459C" d="M90.5,55c-2.3-1.8-4.7-3.4-7.4-4.7c-5.4-2.7-11.4-4.1-17.8-4.1c-22.2,0-40.2,18-40.2,40.2
				c0,7.7,2.2,14.9,5.9,21c3,4.9,7,9,11.7,12.2c6.4,4.4,14.2,6.9,22.6,6.9c22.2,0,40.2-18,40.2-40.2C105.6,73.7,99.7,62.3,90.5,55z
				 M65.3,117.7c-17.3,0-31.4-14-31.4-31.4S48,55,65.3,55c6.5,0,12.5,2,17.5,5.3l-0.2,6.9c-5.6-4.5-14.2-4.3-14.2-4.3
				C54.6,63.2,50,75.6,50,84c0,11.2,10.7,18.8,19.2,18.8c19.5,0,20.8-19.3,20.8-19.3l0.3-16.1c4,5.3,6.4,11.9,6.4,19
				C96.7,103.6,82.7,117.7,65.3,117.7z"/>
		</g>
	</g>
</g>
</svg>
