<?xml version="1.0" encoding="utf-8"?>
<!-- Generator: Adobe Illustrator 18.1.0, SVG Export Plug-In . SVG Version: 6.00 Build 0)  -->
<!DOCTYPE svg PUBLIC "-//W3C//DTD SVG 1.1//EN" "http://www.w3.org/Graphics/SVG/1.1/DTD/svg11.dtd">
<svg version="1.1" xmlns="http://www.w3.org/2000/svg" xmlns:xlink="http://www.w3.org/1999/xlink" x="0px" y="0px"
	 viewBox="0 0 157.6 123.9" enable-background="new 0 0 157.6 123.9" xml:space="preserve">
<g id="Layer_3" display="none">
</g>
<g id="Layer_2">
	<g>
		<g>
			<path fill="#48459C" d="M93,53.3L92.8,66c0,0-1,15.3-16.5,15.3c-6.7,0-15.2-6-15.2-14.9c0-6.7,3.6-16.4,14.5-16.7
				c0,0,6.8-0.1,11.3,3.4l0.2-5.5C89.4,49.2,91.4,51.1,93,53.3z"/>
			<path fill="#48459C" d="M49,82.1l-23.5,23.5c-5.2,5.2-5.2,13.7,0,18.9l0,0l31-31L49,82.1z"/>
			<g>
				<path fill="#48459C" d="M108.4,20c-7.7-5.6-19.7-20-19.7-20l-1.3,39.8l-0.3,7.9L87,53.2c-4.4-3.6-11.3-3.4-11.3-3.4
					C64.8,50,61.1,59.8,61.1,66.5c0,8.9,8.5,14.9,15.2,14.9C91.8,81.3,92.8,66,92.8,66L93,53.3l0.2-9.8l0.6-32.7
					c5.3,7.1,11.3,17.5,11.3,17.5c4.4,10-3.6,15.8-3.6,15.8c8.9-0.9,10.8-9,10.8-9C115.3,26.4,108.4,20,108.4,20z M70.1,74.7
					l-0.3-18.2c0-1.2,1.3-2,2.4-1.4l15.2,8.3c1.1,0.6,1.2,2.2,0.1,2.9l-14.6,9.8C71.7,76.9,70.1,76.1,70.1,74.7z"/>
				<path fill="#48459C" d="M88.7,66.4L71.9,77.7c-1.3,0.9-3.1,0-3.1-1.6l-0.4-20.9c0-1.4,1.5-2.3,2.7-1.6l17.4,9.6
					C89.9,63.8,89.9,65.6,88.7,66.4z"/>
			</g>
			<g>
				<path fill="#48459C" d="M81.9,9.7C78.5,7.3,73.3,1,73.3,1l-0.6,17.3l-0.1,3.5l-0.1,2.4c-1.9-1.6-4.9-1.5-4.9-1.5
					c-4.7,0.1-6.3,4.4-6.3,7.3c0,3.9,3.7,6.5,6.6,6.5c6.7,0,7.2-6.7,7.2-6.7l0.1-5.6l0.1-4.2l0.3-14.2c2.3,3.1,4.9,7.6,4.9,7.6
					c1.9,4.4-1.6,6.9-1.6,6.9c3.9-0.4,4.7-3.9,4.7-3.9C84.9,12.5,81.9,9.7,81.9,9.7z M65.2,33.5l-0.1-7.9c0-0.5,0.6-0.9,1-0.6
					l6.6,3.6c0.5,0.3,0.5,1,0.1,1.3l-6.4,4.3C65.9,34.5,65.2,34.1,65.2,33.5z"/>
				<path fill="#48459C" d="M73.3,29.9L66,34.8c-0.6,0.4-1.4,0-1.4-0.7L64.5,25c0-0.6,0.6-1,1.2-0.7l7.6,4.2
					C73.8,28.8,73.8,29.6,73.3,29.9z"/>
			</g>
			<g>
				<path fill="#48459C" d="M124,31.7c-3.3-2.4-8.6-8.7-8.6-8.7l-0.6,17.3l-0.1,3.5l-0.1,2.4c-1.9-1.6-4.9-1.5-4.9-1.5
					c-4.7,0.1-6.3,4.4-6.3,7.3c0,3.9,3.7,6.5,6.6,6.5c6.7,0,7.2-6.7,7.2-6.7l0.1-5.6l0.1-4.2l0.3-14.2c2.3,3.1,4.9,7.6,4.9,7.6
					c1.9,4.4-1.6,6.9-1.6,6.9c3.9-0.4,4.7-3.9,4.7-3.9C127,34.4,124,31.7,124,31.7z M107.4,55.5l-0.1-7.9c0-0.5,0.6-0.9,1-0.6
					l6.6,3.6c0.5,0.3,0.5,1,0.1,1.3l-6.4,4.3C108.1,56.4,107.4,56.1,107.4,55.5z"/>
				<path fill="#48459C" d="M115.5,51.9l-7.3,4.9c-0.6,0.4-1.4,0-1.4-0.7l-0.2-9.1c0-0.6,0.6-1,1.2-0.7l7.6,4.2
					C116,50.7,116,51.5,115.5,51.9z"/>
			</g>
			<path fill="#48459C" d="M93.2,43.5c-1.8-1.4-3.7-2.7-5.8-3.7c-4.2-2.1-9-3.3-14.1-3.3c-17.6,0-31.8,14.2-31.8,31.8
				c0,6.1,1.7,11.8,4.7,16.6c2.4,3.8,5.5,7.2,9.3,9.7c5.1,3.5,11.2,5.5,17.9,5.5c17.6,0,31.8-14.2,31.8-31.8
				C105.1,58.3,100.5,49.3,93.2,43.5z M73.3,93.1c-13.7,0-24.8-11.1-24.8-24.8s11.1-24.8,24.8-24.8c5.1,0,9.9,1.5,13.8,4.2L87,53.2
				c-4.4-3.6-11.3-3.4-11.3-3.4C64.8,50,61.1,59.8,61.1,66.5c0,8.9,8.5,14.9,15.2,14.9C91.8,81.3,92.8,66,92.8,66L93,53.3
				c3.2,4.2,5.1,9.4,5.1,15.1C98.1,82,87,93.1,73.3,93.1z"/>
		</g>
	</g>
</g>
</svg>
