<?xml version="1.0" encoding="utf-8"?>
<!-- Generator: Adobe Illustrator 18.1.0, SVG Export Plug-In . SVG Version: 6.00 Build 0)  -->
<!DOCTYPE svg PUBLIC "-//W3C//DTD SVG 1.1//EN" "http://www.w3.org/Graphics/SVG/1.1/DTD/svg11.dtd">
<svg version="1.1" xmlns="http://www.w3.org/2000/svg" xmlns:xlink="http://www.w3.org/1999/xlink" x="0px" y="0px"
	 viewBox="0 0 144 125.2" enable-background="new 0 0 144 125.2" xml:space="preserve">
<g id="Layer_3" display="none">
</g>
<g id="Layer_2">
	<path fill="#F0EC73" d="M45.3,0c13.1-2.5,17.8,14.8,17.8,14.8v17.8h48.2c0,0,11.1,3.7,11.9,15.6c0.7,11.9-13.3,15.6-13.3,15.6H61.6
		v26.7h49.6c0,0,11.9,3.7,11.9,17.8c0,14.1-12.6,17-12.6,17H63.1c0,0-15.6-1.5-23-11.9s-8.9-23.7-8.9-23.7V13.3
		C31.2,13.3,33.5,2.2,45.3,0z"/>
	<path fill="none" stroke="#F0EC73" stroke-width="3" stroke-miterlimit="10" d="M132.2,125.2h-120c-6.6,0-12-5.4-12-12V11.7
		c0-6.6,5.4-12,12-12h120c6.6,0,12,5.4,12,12v101.4C144.2,119.8,138.8,125.2,132.2,125.2z"/>
</g>
</svg>
